<svg fill="#d64343" version="1.1" id="Capa_1" xmlns="http://www.w3.org/2000/svg" xmlns:xlink="http://www.w3.org/1999/xlink" viewBox="0 0 116.228 116.228" xml:space="preserve" stroke="#d64343"><g id="SVGRepo_bgCarrier" stroke-width="0"></g><g id="SVGRepo_tracerCarrier" stroke-linecap="round" stroke-linejoin="round"></g><g id="SVGRepo_iconCarrier"> <g> <g> <path d="M116.228,35.798L116.228,35.798l-20.521,0.031c-8.695-14.152-20.04-21.232-37.593-21.417 c-15.994,0-29.977,8.595-37.592,21.417L0,35.798l58.114,34.404L116.228,35.798z M29.53,41.163 c1.867-3.142,4.234-5.948,6.995-8.312l16.139,9.555V25.324c1.774-0.293,3.594-0.451,5.45-0.451c1.857,0,3.677,0.158,5.451,0.451 v17.082l16.139-9.555c2.761,2.364,5.127,5.17,6.994,8.312L58.114,58.083L29.53,41.163z"></path> <path d="M91.17,54.606c0.121,1.153,0.186,2.323,0.186,3.508c0,15.341-10.396,28.248-24.525,32.079l-8.716-16.271l-8.716,16.271 c-14.13-3.831-24.525-16.738-24.525-32.079c0-1.186,0.064-2.355,0.186-3.508l-9.661-5.72c-0.64,2.976-0.985,6.061-0.985,9.228 c0,24.136,19.566,43.702,43.702,43.702c24.136,0,43.7-19.566,43.7-43.702c0-3.167-0.345-6.252-0.984-9.228L91.17,54.606z"></path> </g> </g> </g></svg>
